<?xml version="1.0" encoding="UTF-8"?>
<!DOCTYPE svg PUBLIC "-//W3C//DTD SVG 1.1//EN" "http://www.w3.org/Graphics/SVG/1.1/DTD/svg11.dtd">
<!-- Creator: CorelDRAW X7 -->
<svg xmlns="http://www.w3.org/2000/svg" xml:space="preserve" width="1.73369in" height="0.85061in" version="1.1" style="shape-rendering:geometricPrecision; text-rendering:geometricPrecision; image-rendering:optimizeQuality; fill-rule:evenodd; clip-rule:evenodd"
viewBox="0 0 1672 820"
 xmlns:xlink="http://www.w3.org/1999/xlink">
 <defs>
  <style type="text/css">
   <![CDATA[
    .fil2 {fill:#2A48C5}
    .fil1 {fill:#B3B3B3}
    .fil3 {fill:white}
    .fil0 {fill:#4D4D4D;fill-rule:nonzero}
    .fil5 {fill:white;fill-rule:nonzero}
    .fil4 {fill:white;fill-rule:nonzero}
   ]]>
  </style>
    <mask id="id0">
  <linearGradient id="id1" gradientUnits="userSpaceOnUse" x1="813.96" y1="354.414" x2="752.24" y2="-5.79998">
   <stop offset="0" style="stop-opacity:1; stop-color:white"/>
   <stop offset="1" style="stop-opacity:0; stop-color:white"/>
  </linearGradient>
     <rect style="fill:url(#id1)" x="373" y="-3" width="820" height="355"/>
    </mask>
 </defs>
 <g id="Layer_x0020_1">
  <metadata id="CorelCorpID_0Corel-Layer"/>
  <path class="fil0" d="M107 654c-15,-13 -30,-17 -49,-17 -23,0 -54,11 -54,40 0,29 29,37 53,39 18,1 25,5 25,13 0,10 -11,16 -23,15 -14,0 -35,-7 -44,-17l-15 22c18,19 38,23 58,23 37,0 55,-20 55,-42 0,-33 -30,-39 -54,-40 -16,-1 -24,-6 -24,-14 0,-8 8,-13 23,-13 12,0 23,3 31,11l18 -20z"/>
  <path id="1" class="fil0" d="M134 641l0 66c0,40 22,62 52,62 18,0 30,-6 43,-19l2 17 28 0 0 -126 -31 0 0 64c0,20 -13,36 -33,36 -20,0 -30,-15 -30,-34l0 -66 -31 0z"/>
  <path id="2" class="fil0" d="M356 740c-21,0 -36,-16 -36,-36 0,-20 14,-36 36,-36 23,0 36,16 36,36 0,20 -14,36 -36,36zm-38 80l0 -68c9,14 28,18 42,18 40,0 64,-29 64,-66 0,-37 -26,-66 -65,-66 -15,0 -32,6 -41,20l-2 -17 -30 0 0 179 32 0z"/>
  <path id="3" class="fil0" d="M517 740c-22,0 -36,-16 -36,-36 0,-20 13,-36 36,-36 22,0 35,16 35,36 0,20 -14,36 -35,36zm-39 80l0 -68c9,14 29,18 42,18 40,0 64,-29 64,-66 0,-37 -26,-66 -65,-66 -14,0 -31,6 -41,20l-2 -17 -29 0 0 179 31 0z"/>
  <path id="4" class="fil0" d="M666 638c-40,0 -65,30 -65,66 0,37 25,66 66,66 41,0 65,-29 65,-66 0,-36 -25,-66 -66,-66zm1 29c21,0 34,18 34,37 0,19 -12,37 -34,37 -23,0 -35,-18 -35,-37 0,-19 12,-37 35,-37z"/>
  <path id="5" class="fil0" d="M754 641l0 126 31 0 0 -66c0,-24 15,-32 32,-32 10,0 16,2 22,8l14 -27c-6,-7 -19,-12 -32,-12 -13,0 -26,2 -36,18l-2 -15 -29 0z"/>
  <path id="6" class="fil0" d="M886 609l0 32 -24 0 0 27 24 0 0 55c0,31 18,47 45,46 10,0 17,-2 26,-6l-8 -26c-5,2 -11,4 -16,4 -9,0 -16,-6 -16,-18l0 -55 35 0 0 -27 -35 0 0 -36 -31 4z"/>
  <path id="7" class="fil0" d="M1040 609l0 32 -24 0 0 27 24 0 0 55c0,31 18,47 45,46 10,0 17,-2 26,-6l-8 -26c-5,2 -11,4 -15,4 -10,0 -17,-6 -17,-18l0 -55 35 0 0 -27 -35 0 0 -36 -31 4z"/>
  <path id="8" class="fil0" d="M1161 640l0 127 -31 0 0 -127 31 0zm-34 -35c0,25 37,25 37,0 0,-24 -37,-24 -37,0z"/>
  <path id="9" class="fil0" d="M1276 731c-7,7 -17,10 -27,10 -20,0 -36,-13 -36,-37 0,-22 15,-37 36,-37 9,0 18,3 26,10l19 -21c-13,-14 -27,-19 -45,-19 -37,0 -67,22 -67,67 0,45 30,67 67,67 18,0 34,-6 48,-20l-21 -20z"/>
  <polygon id="10" class="fil0" points="1311,588 1311,767 1342,767 1342,710 1391,767 1429,767 1429,765 1370,700 1422,643 1422,641 1384,641 1342,692 1342,588 "/>
  <path id="11" class="fil0" d="M1569 715c5,-52 -22,-78 -64,-78 -41,0 -67,28 -67,66 0,41 26,68 69,68 19,0 41,-7 55,-21l-20 -20c-8,8 -23,12 -34,12 -22,0 -36,-11 -38,-27l99 0zm-98 -26c4,-16 18,-24 35,-24 18,0 31,8 33,24l-68 0z"/>
  <path id="12" class="fil0" d="M1600 609l0 32 -23 0 0 27 23 0 0 55c0,31 18,47 46,46 9,0 17,-2 26,-6l-9 -26c-5,2 -10,4 -15,4 -10,0 -17,-6 -17,-18l0 -55 35 0 0 -27 -34 0 0 -36 -32 4z"/>
  <g id="_275197704">
   <ellipse class="fil1" cx="895" cy="496" rx="400" ry="5"/>
   <path class="fil2" d="M1149 0l41 152c-28,11 -43,40 -34,72 8,32 37,57 70,64l41 152 -772 56 -41 -152c28,-11 42,-40 34,-72 -9,-32 -38,-57 -71,-64l-40 -152 772 -56z"/>
   <path class="fil3" style="mask:url(#id0)" d="M1149 0l41 152c-3,1 -5,2 -7,3 -48,23 -337,157 -728,194l-1 -5c28,-11 42,-40 34,-72 -9,-32 -38,-57 -71,-64l-40 -152 772 -56z"/>
   <path class="fil4" d="M1119 42l-691 50 22 85c18,7 35,19 48,33 13,15 23,33 28,52 5,19 5,38 0,55 -4,17 -13,32 -26,44l25 93 691 -50 -23 -85c-18,-7 -34,-19 -47,-34 -14,-14 -24,-32 -29,-51 -5,-19 -5,-38 0,-55 5,-17 14,-32 27,-44l-25 -93zm-698 41l701 -51 4 0 1 4 27 99 1 3 -2 2c-13,11 -22,26 -26,41 -4,16 -5,33 0,51 5,17 14,33 26,47 13,14 29,25 46,32l3 1 0 2 25 93 2 6 -6 0 -702 51 -4 0 -1 -4 -27 -99 0 -3 2 -2c12,-11 21,-26 26,-41 4,-16 4,-33 -1,-51 -4,-17 -13,-33 -26,-47 -12,-14 -28,-25 -46,-32l-2 -1 -1 -2 -25 -93 -1 -6 6 0z"/>
   <path class="fil5" d="M925 171c-14,-36 -51,-47 -87,-47 -43,1 -92,20 -97,68 -5,53 37,65 84,71 31,3 53,12 51,34 -3,26 -30,35 -57,35 -29,0 -54,-11 -62,-37l-39 19c13,43 48,58 96,58 52,0 100,-23 106,-75 5,-55 -39,-68 -87,-74 -28,-3 -51,-9 -49,-29 2,-18 19,-31 51,-31 26,0 47,12 53,26l37 -18z"/>
  </g>
 </g>
</svg>
