<?xml version="1.0" encoding="UTF-8" standalone="no"?>
<!-- Creator: CorelDRAW X7 -->

<svg
   xmlns:dc="http://purl.org/dc/elements/1.1/"
   xmlns:cc="http://creativecommons.org/ns#"
   xmlns:rdf="http://www.w3.org/1999/02/22-rdf-syntax-ns#"
   xmlns:svg="http://www.w3.org/2000/svg"
   xmlns="http://www.w3.org/2000/svg"
   xmlns:sodipodi="http://sodipodi.sourceforge.net/DTD/sodipodi-0.dtd"
   xmlns:inkscape="http://www.inkscape.org/namespaces/inkscape"
   xml:space="preserve"
   width="86"
   height="47"
   version="1.1"
   style="fill-rule:evenodd"
   viewBox="0 0 921.55372 503.42956"
   id="svg3030"
   inkscape:version="0.48.2 r9819"
   sodipodi:docname="logo-large.svg"><metadata
   id="metadata3073"><rdf:RDF><cc:Work
       rdf:about=""><dc:format>image/svg+xml</dc:format><dc:type
         rdf:resource="http://purl.org/dc/dcmitype/StillImage" /><dc:title></dc:title></cc:Work></rdf:RDF></metadata><sodipodi:namedview
   pagecolor="#ffffff"
   bordercolor="#666666"
   borderopacity="1"
   objecttolerance="10"
   gridtolerance="10"
   guidetolerance="10"
   inkscape:pageopacity="0"
   inkscape:pageshadow="2"
   inkscape:window-width="1366"
   inkscape:window-height="716"
   id="namedview3071"
   showgrid="false"
   width="1052.36px"
   inkscape:zoom="11.271847"
   inkscape:cx="42.834182"
   inkscape:cy="23.237235"
   inkscape:window-x="-8"
   inkscape:window-y="-8"
   inkscape:window-maximized="1"
   inkscape:current-layer="Layer_x0020_1" />
 <defs
   id="defs3032">
  <style
   type="text/css"
   id="style3034">
   
    .fil2 {fill:#2A48C5}
    .fil1 {fill:#B3B3B3}
    .fil3 {fill:white}
    .fil0 {fill:#4D4D4D;fill-rule:nonzero}
    .fil5 {fill:white;fill-rule:nonzero}
    .fil4 {fill:white;fill-rule:nonzero}
   
  </style>
    <mask
   id="id0">
  <linearGradient
   id="id1"
   gradientUnits="userSpaceOnUse"
   x1="813.96002"
   y1="354.414"
   x2="752.23999"
   y2="-5.7999802">
   <stop
   offset="0"
   style="stop-opacity:1; stop-color:white"
   id="stop3038" />
   <stop
   offset="1"
   style="stop-opacity:0; stop-color:white"
   id="stop3040" />
  </linearGradient>
     <rect
   style="fill:url(#id1)"
   x="373"
   y="-3"
   width="820"
   height="355"
   id="rect3042" />
    </mask>
 </defs>
 <g
   id="Layer_x0020_1"
   transform="translate(0,-316.70013)">
  <metadata
   id="CorelCorpID_0Corel-Layer" />
  
  
  
  
  
  
  
  
  
  
  
  
  
  <g
   id="_275197704"
   transform="translate(-377,319.17134)">
   <ellipse
   class="fil1"
   cx="895"
   cy="496"
   rx="400"
   ry="5"
   id="ellipse3061"
   d="m 1295,496 c 0,2.76142 -179.0861,5 -400,5 -220.9139,0 -400,-2.23858 -400,-5 0,-2.76142 179.0861,-5 400,-5 220.9139,0 400,2.23858 400,5 z"
   sodipodi:cx="895"
   sodipodi:cy="496"
   sodipodi:rx="400"
   sodipodi:ry="5"
   style="fill:#b3b3b3" />
   <path
   class="fil2"
   d="m 1149,0 41,152 c -28,11 -43,40 -34,72 8,32 37,57 70,64 l 41,152 -772,56 -41,-152 c 28,-11 42,-40 34,-72 -9,-32 -38,-57 -71,-64 L 377,56 1149,0 z"
   id="path3063"
   inkscape:connector-curvature="0"
   style="fill:#2a48c5" />
   <path
   class="fil3"
   style="fill:#ffffff"
   d="m 1149,0 41,152 c -3,1 -5,2 -7,3 -48,23 -337,157 -728,194 l -1,-5 c 28,-11 42,-40 34,-72 -9,-32 -38,-57 -71,-64 L 377,56 1149,0 z"
   id="path3065"
   mask="url(#id0)"
   inkscape:connector-curvature="0" />
   <path
   class="fil4"
   d="m 1119,42 -691,50 22,85 c 18,7 35,19 48,33 13,15 23,33 28,52 5,19 5,38 0,55 -4,17 -13,32 -26,44 l 25,93 691,-50 -23,-85 c -18,-7 -34,-19 -47,-34 -14,-14 -24,-32 -29,-51 -5,-19 -5,-38 0,-55 5,-17 14,-32 27,-44 l -25,-93 z m -698,41 701,-51 4,0 1,4 27,99 1,3 -2,2 c -13,11 -22,26 -26,41 -4,16 -5,33 0,51 5,17 14,33 26,47 13,14 29,25 46,32 l 3,1 0,2 25,93 2,6 -6,0 -702,51 -4,0 -1,-4 -27,-99 0,-3 2,-2 c 12,-11 21,-26 26,-41 4,-16 4,-33 -1,-51 -4,-17 -13,-33 -26,-47 -12,-14 -28,-25 -46,-32 l -2,-1 -1,-2 -25,-93 -1,-6 6,0 z"
   id="path3067"
   inkscape:connector-curvature="0"
   style="fill:#ffffff;fill-rule:nonzero" />
   <path
   class="fil5"
   d="m 925,171 c -14,-36 -51,-47 -87,-47 -43,1 -92,20 -97,68 -5,53 37,65 84,71 31,3 53,12 51,34 -3,26 -30,35 -57,35 -29,0 -54,-11 -62,-37 l -39,19 c 13,43 48,58 96,58 52,0 100,-23 106,-75 5,-55 -39,-68 -87,-74 -28,-3 -51,-9 -49,-29 2,-18 19,-31 51,-31 26,0 47,12 53,26 l 37,-18 z"
   id="path3069"
   inkscape:connector-curvature="0"
   style="fill:#ffffff;fill-rule:nonzero" />
  </g>
 </g>
</svg>